# xmcd CD database file
#
# Track frame offsets:
#	187
#	16552
#	39262
#
# Disc length: 740 seconds
#
# Revision: 0
# Processed by: cddbd v1.5PL3 Copyright (c) Steve Scherf et al.
# Submitted via: CDex 1.50Beta7
#
DISCID=1002e203
DTITLE=GLAY - 口唇
DYEAR=1997
DGENRE=rock_pop
TTITLE0=口唇
TTITLE1=春を愛する人
TTITLE2=口唇 (オリジナル・カラオケ)
EXTD=YEAR: 1997
EXTT0=
EXTT1=
EXTT2=
PLAYORDER=
